M48
; DRILL file {KiCad 6.0.11-2627ca5db0~126~ubuntu20.04.1} date Thu 08 Jun 2023 06:54:09 PM EDT
; FORMAT={-:-/ absolute / inch / decimal}
; #@! TF.CreationDate,2023-06-08T18:54:09-04:00
; #@! TF.GenerationSoftware,Kicad,Pcbnew,6.0.11-2627ca5db0~126~ubuntu20.04.1
; #@! TF.FileFunction,Plated,1,2,PTH
FMAT,2
INCH
; #@! TA.AperFunction,Plated,PTH,ViaDrill
T1C0.0098
; #@! TA.AperFunction,Plated,PTH,ComponentDrill
T2C0.0315
; #@! TA.AperFunction,Plated,PTH,ComponentDrill
T3C0.0354
; #@! TA.AperFunction,Plated,PTH,ComponentDrill
T4C0.0386
; #@! TA.AperFunction,Plated,PTH,ComponentDrill
T5C0.0390
; #@! TA.AperFunction,Plated,PTH,ComponentDrill
T6C0.0394
%
G90
G05
T1
X3.1307Y-2.6799
X3.1319Y-3.6673
X3.1343Y-2.3504
X3.1465Y-2.7441
X3.1465Y-3.513
X3.1545Y-2.8002
X3.1634Y-3.1331
X3.1703Y-3.7146
X3.1827Y-2.3051
X3.189Y-3.0856
X3.2087Y-2.4335
X3.2087Y-2.815
X3.2091Y-2.728
X3.2333Y-3.1594
X3.2346Y-3.5492
X3.2431Y-3.3671
X3.2508Y-2.5043
X3.2543Y-2.574
X3.263Y-2.8595
X3.2669Y-2.6035
X3.2685Y-2.6303
X3.2785Y-2.6909
X3.2831Y-2.3618
X3.2874Y-3.5522
X3.2933Y-3.6406
X3.298Y-2.4878
X3.2982Y-2.7146
X3.3004Y-2.5866
X3.3041Y-2.7815
X3.3043Y-3.2126
X3.3098Y-3.2587
X3.3106Y-2.5315
X3.311Y-2.9065
X3.3165Y-3.3917
X3.3339Y-3.5886
X3.3358Y-3.6748
X3.3386Y-2.6654
X3.3455Y-3.5207
X3.35Y-2.5118
X3.3591Y-3.378
X3.3632Y-2.7549
X3.3642Y-3.0909
X3.3839Y-2.6201
X3.3888Y-3.2569
X3.3921Y-2.3055
X3.3976Y-3.3504
X3.4006Y-2.7224
X3.4055Y-2.5364
X3.4055Y-2.7543
X3.4075Y-2.4008
X3.4094Y-2.8976
X3.4114Y-2.5669
X3.4154Y-2.9969
X3.424Y-2.7098
X3.4374Y-2.5252
X3.439Y-2.687
X3.4465Y-2.5976
X3.4508Y-3.5594
X3.4537Y-2.6644
X3.4734Y-2.6073
X3.4811Y-3.6673
X3.4831Y-2.6713
X3.4872Y-3.2402
X3.4902Y-3.5394
X3.4921Y-2.3142
X3.4929Y-2.4559
X3.4949Y-3.0539
X3.5055Y-2.3811
X3.5059Y-3.3713
X3.5104Y-3.59
X3.5118Y-2.6644
X3.5307Y-2.5173
X3.5478Y-3.0127
X3.5679Y-3.5974
X3.576Y-3.3272
X3.5933Y-2.4004
X3.5937Y-2.3161
X3.5992Y-2.6236
X3.6024Y-3.6467
X3.6232Y-2.6945
X3.6283Y-2.9606
X3.6299Y-3.4146
X3.6303Y-2.5563
X3.6524Y-2.4996
X3.6598Y-3.202
X3.6614Y-3.622
X3.6669Y-3.0685
X3.6685Y-3.1276
X3.6777Y-2.5442
X3.6827Y-2.926
X3.6929Y-2.3701
X3.6929Y-2.4252
X3.6969Y-2.7236
X3.6992Y-2.7681
X3.7004Y-2.5642
X3.7254Y-3.5482
X3.7264Y-2.9031
X3.7421Y-2.5335
X3.8026Y-2.3888
X3.8157Y-3.3874
X3.8272Y-2.937
X3.8295Y-3.4764
X3.8307Y-3.1841
X3.8366Y-3.2657
X3.8386Y-2.5394
X3.839Y-2.6213
X3.8469Y-3.1039
X3.8496Y-3.4224
X3.8555Y-2.8008
X3.8756Y-3.574
X3.8913Y-2.8988
X3.8913Y-3.6575
X3.902Y-2.3043
X3.9138Y-3.0713
X3.9142Y-3.2295
X3.9161Y-3.1429
X3.9165Y-3.3004
X3.9169Y-2.4535
X3.9177Y-3.4047
X3.9217Y-2.9594
X3.9543Y-2.361
T2
X3.165Y-3.3512
X3.165Y-3.4398
X3.1665Y-2.8537
X3.1665Y-2.9423
T3
X3.2283Y-3.7451
X3.3858Y-3.7451
X3.5433Y-3.7451
X3.7008Y-3.7451
X3.8583Y-3.7451
T4
X3.3169Y-2.9724
X3.3169Y-3.1496
X3.3169Y-3.3268
X3.3858Y-2.8346
X3.3858Y-3.4646
X3.5433Y-2.7953
X3.5433Y-3.5039
X3.7008Y-2.8346
X3.7008Y-3.4646
X3.7697Y-2.9724
X3.7697Y-3.1496
X3.7697Y-3.3268
T5
X3.3169Y-3.1496
T6
X3.3429Y-2.3417
X3.3429Y-2.4417
X3.4429Y-2.3417
X3.4429Y-2.4417
X3.5429Y-2.3417
X3.5429Y-2.4417
X3.6429Y-2.3417
X3.6429Y-2.4417
X3.7429Y-2.3417
X3.7429Y-2.4417
T0
M30
