%TF.GenerationSoftware,KiCad,Pcbnew,(6.0.0)*%
%TF.CreationDate,2023-04-30T17:40:05-04:00*%
%TF.ProjectId,nixitest1,6e697869-7465-4737-9431-2e6b69636164,rev?*%
%TF.SameCoordinates,Original*%
%TF.FileFunction,Soldermask,Bot*%
%TF.FilePolarity,Negative*%
%FSLAX46Y46*%
G04 Gerber Fmt 4.6, Leading zero omitted, Abs format (unit mm)*
G04 Created by KiCad (PCBNEW (6.0.0)) date 2023-04-30 17:40:05*
%MOMM*%
%LPD*%
G01*
G04 APERTURE LIST*
G04 Aperture macros list*
%AMRoundRect*
0 Rectangle with rounded corners*
0 $1 Rounding radius*
0 $2 $3 $4 $5 $6 $7 $8 $9 X,Y pos of 4 corners*
0 Add a 4 corners polygon primitive as box body*
4,1,4,$2,$3,$4,$5,$6,$7,$8,$9,$2,$3,0*
0 Add four circle primitives for the rounded corners*
1,1,$1+$1,$2,$3*
1,1,$1+$1,$4,$5*
1,1,$1+$1,$6,$7*
1,1,$1+$1,$8,$9*
0 Add four rect primitives between the rounded corners*
20,1,$1+$1,$2,$3,$4,$5,0*
20,1,$1+$1,$4,$5,$6,$7,0*
20,1,$1+$1,$6,$7,$8,$9,0*
20,1,$1+$1,$8,$9,$2,$3,0*%
G04 Aperture macros list end*
%ADD10C,0.150000*%
%ADD11C,4.000000*%
%ADD12C,2.280000*%
%ADD13R,1.750000X2.250000*%
%ADD14RoundRect,0.160000X0.640000X-0.640000X0.640000X0.640000X-0.640000X0.640000X-0.640000X-0.640000X0*%
%ADD15C,1.600000*%
%ADD16R,1.700000X1.700000*%
%ADD17O,1.700000X1.700000*%
G04 APERTURE END LIST*
D10*
X80970000Y-60860000D02*
X80970000Y-60360000D01*
X82470000Y-59860000D02*
X81970000Y-59360000D01*
X81970000Y-60360000D02*
X81470000Y-60860000D01*
X81970000Y-59360000D02*
X81970000Y-60360000D01*
X80970000Y-60360000D02*
X81470000Y-59860000D01*
X81470000Y-59860000D02*
X82470000Y-59860000D01*
X81470000Y-60860000D02*
X80970000Y-60860000D01*
D11*
%TO.C,U2*%
X89850000Y-80020000D03*
D12*
X86000000Y-72000000D03*
X84250000Y-75500000D03*
X84250000Y-80000000D03*
X84250000Y-80000000D03*
X84250000Y-84500000D03*
X86000000Y-88000000D03*
X90000000Y-89000000D03*
X94000000Y-88000000D03*
X95750000Y-84500000D03*
X95750000Y-80000000D03*
X95750000Y-75500000D03*
X94000000Y-72000000D03*
X90000000Y-71000000D03*
%TD*%
D13*
%TO.C,J6*%
X98000000Y-95125000D03*
%TD*%
%TO.C,J5*%
X94000000Y-95125000D03*
%TD*%
%TO.C,J3*%
X90000000Y-95125000D03*
%TD*%
D14*
%TO.C,NE1*%
X80390000Y-87370000D03*
D15*
X80390000Y-85120000D03*
%TD*%
D14*
%TO.C,NE2*%
X80430000Y-74735000D03*
D15*
X80430000Y-72485000D03*
%TD*%
D13*
%TO.C,J4*%
X86000000Y-95125000D03*
%TD*%
%TO.C,J2*%
X82000000Y-95125000D03*
%TD*%
D16*
%TO.C,J1*%
X84910000Y-62020000D03*
D17*
X84910000Y-59480000D03*
X87450000Y-62020000D03*
X87450000Y-59480000D03*
X89990000Y-62020000D03*
X89990000Y-59480000D03*
X92530000Y-62020000D03*
X92530000Y-59480000D03*
X95070000Y-62020000D03*
X95070000Y-59480000D03*
%TD*%
M02*
