%TF.GenerationSoftware,KiCad,Pcbnew,(6.0.0)*%
%TF.CreationDate,2023-04-30T17:40:05-04:00*%
%TF.ProjectId,nixitest1,6e697869-7465-4737-9431-2e6b69636164,rev?*%
%TF.SameCoordinates,Original*%
%TF.FileFunction,Legend,Top*%
%TF.FilePolarity,Positive*%
%FSLAX46Y46*%
G04 Gerber Fmt 4.6, Leading zero omitted, Abs format (unit mm)*
G04 Created by KiCad (PCBNEW (6.0.0)) date 2023-04-30 17:40:05*
%MOMM*%
%LPD*%
G01*
G04 APERTURE LIST*
%ADD10C,0.100000*%
G04 APERTURE END LIST*
D10*
X82966666Y-93150000D02*
X82900000Y-93116666D01*
X82800000Y-93116666D01*
X82700000Y-93150000D01*
X82633333Y-93216666D01*
X82600000Y-93283333D01*
X82566666Y-93416666D01*
X82566666Y-93516666D01*
X82600000Y-93650000D01*
X82633333Y-93716666D01*
X82700000Y-93783333D01*
X82800000Y-93816666D01*
X82866666Y-93816666D01*
X82966666Y-93783333D01*
X83000000Y-93750000D01*
X83000000Y-93516666D01*
X82866666Y-93516666D01*
X83300000Y-93816666D02*
X83300000Y-93116666D01*
X83700000Y-93816666D01*
X83700000Y-93116666D01*
X84033333Y-93816666D02*
X84033333Y-93116666D01*
X84200000Y-93116666D01*
X84300000Y-93150000D01*
X84366666Y-93216666D01*
X84400000Y-93283333D01*
X84433333Y-93416666D01*
X84433333Y-93516666D01*
X84400000Y-93650000D01*
X84366666Y-93716666D01*
X84300000Y-93783333D01*
X84200000Y-93816666D01*
X84033333Y-93816666D01*
X81003333Y-64910000D02*
X81036666Y-64976666D01*
X81036666Y-65110000D01*
X81003333Y-65176666D01*
X80970000Y-65210000D01*
X80903333Y-65243333D01*
X80703333Y-65243333D01*
X80636666Y-65210000D01*
X80603333Y-65176666D01*
X80570000Y-65110000D01*
X80570000Y-64976666D01*
X80603333Y-64910000D01*
X80570000Y-64610000D02*
X81036666Y-64610000D01*
X80636666Y-64610000D02*
X80603333Y-64576666D01*
X80570000Y-64510000D01*
X80570000Y-64410000D01*
X80603333Y-64343333D01*
X80670000Y-64310000D01*
X81036666Y-64310000D01*
X81036666Y-63976666D02*
X80570000Y-63976666D01*
X80336666Y-63976666D02*
X80370000Y-64010000D01*
X80403333Y-63976666D01*
X80370000Y-63943333D01*
X80336666Y-63976666D01*
X80403333Y-63976666D01*
X81036666Y-63710000D02*
X80570000Y-63343333D01*
X80570000Y-63710000D02*
X81036666Y-63343333D01*
X81036666Y-63143333D02*
X80570000Y-62776666D01*
X80570000Y-63143333D02*
X81036666Y-62776666D01*
X81036666Y-62510000D02*
X80570000Y-62510000D01*
X80336666Y-62510000D02*
X80370000Y-62543333D01*
X80403333Y-62510000D01*
X80370000Y-62476666D01*
X80336666Y-62510000D01*
X80403333Y-62510000D01*
X87778023Y-71531666D02*
X87922361Y-71448333D01*
X87947959Y-71626004D02*
X87922361Y-71448333D01*
X87781292Y-71337329D01*
X88087831Y-71468269D02*
X87922361Y-71448333D01*
X87987831Y-71295064D01*
X97325000Y-92991666D02*
X97325000Y-93558333D01*
X97358333Y-93625000D01*
X97391666Y-93658333D01*
X97458333Y-93691666D01*
X97591666Y-93691666D01*
X97658333Y-93658333D01*
X97691666Y-93625000D01*
X97725000Y-93558333D01*
X97725000Y-92991666D01*
X97958333Y-92991666D02*
X98358333Y-92991666D01*
X98158333Y-93691666D02*
X98158333Y-92991666D01*
X98525000Y-92991666D02*
X98991666Y-93691666D01*
X98991666Y-92991666D02*
X98525000Y-93691666D01*
X93816666Y-93691666D02*
X93816666Y-92991666D01*
X94083333Y-92991666D01*
X94150000Y-93025000D01*
X94183333Y-93058333D01*
X94216666Y-93125000D01*
X94216666Y-93225000D01*
X94183333Y-93291666D01*
X94150000Y-93325000D01*
X94083333Y-93358333D01*
X93816666Y-93358333D01*
X94883333Y-93025000D02*
X94816666Y-92991666D01*
X94716666Y-92991666D01*
X94616666Y-93025000D01*
X94550000Y-93091666D01*
X94516666Y-93158333D01*
X94483333Y-93291666D01*
X94483333Y-93391666D01*
X94516666Y-93525000D01*
X94550000Y-93591666D01*
X94616666Y-93658333D01*
X94716666Y-93691666D01*
X94783333Y-93691666D01*
X94883333Y-93658333D01*
X94916666Y-93625000D01*
X94916666Y-93391666D01*
X94783333Y-93391666D01*
X95216666Y-93691666D02*
X95216666Y-92991666D01*
X95450000Y-93491666D01*
X95683333Y-92991666D01*
X95683333Y-93691666D01*
X84991666Y-93116666D02*
X84991666Y-93683333D01*
X85025000Y-93750000D01*
X85058333Y-93783333D01*
X85125000Y-93816666D01*
X85258333Y-93816666D01*
X85325000Y-93783333D01*
X85358333Y-93750000D01*
X85391666Y-93683333D01*
X85391666Y-93116666D01*
X86125000Y-93816666D02*
X85891666Y-93483333D01*
X85725000Y-93816666D02*
X85725000Y-93116666D01*
X85991666Y-93116666D01*
X86058333Y-93150000D01*
X86091666Y-93183333D01*
X86125000Y-93250000D01*
X86125000Y-93350000D01*
X86091666Y-93416666D01*
X86058333Y-93450000D01*
X85991666Y-93483333D01*
X85725000Y-93483333D01*
X86358333Y-93116666D02*
X86825000Y-93816666D01*
X86825000Y-93116666D02*
X86358333Y-93816666D01*
X87566666Y-93116666D02*
X87800000Y-93816666D01*
X88033333Y-93116666D01*
X88666666Y-93750000D02*
X88633333Y-93783333D01*
X88533333Y-93816666D01*
X88466666Y-93816666D01*
X88366666Y-93783333D01*
X88300000Y-93716666D01*
X88266666Y-93650000D01*
X88233333Y-93516666D01*
X88233333Y-93416666D01*
X88266666Y-93283333D01*
X88300000Y-93216666D01*
X88366666Y-93150000D01*
X88466666Y-93116666D01*
X88533333Y-93116666D01*
X88633333Y-93150000D01*
X88666666Y-93183333D01*
X89366666Y-93750000D02*
X89333333Y-93783333D01*
X89233333Y-93816666D01*
X89166666Y-93816666D01*
X89066666Y-93783333D01*
X89000000Y-93716666D01*
X88966666Y-93650000D01*
X88933333Y-93516666D01*
X88933333Y-93416666D01*
X88966666Y-93283333D01*
X89000000Y-93216666D01*
X89066666Y-93150000D01*
X89166666Y-93116666D01*
X89233333Y-93116666D01*
X89333333Y-93150000D01*
X89366666Y-93183333D01*
X88283333Y-82450000D02*
X88283333Y-82916666D01*
X88283333Y-82516666D02*
X88316666Y-82483333D01*
X88383333Y-82450000D01*
X88483333Y-82450000D01*
X88550000Y-82483333D01*
X88583333Y-82550000D01*
X88583333Y-82916666D01*
X88916666Y-82916666D02*
X88916666Y-82450000D01*
X88916666Y-82216666D02*
X88883333Y-82250000D01*
X88916666Y-82283333D01*
X88950000Y-82250000D01*
X88916666Y-82216666D01*
X88916666Y-82283333D01*
X89183333Y-82916666D02*
X89550000Y-82450000D01*
X89183333Y-82450000D02*
X89550000Y-82916666D01*
X89816666Y-82916666D02*
X89816666Y-82450000D01*
X89816666Y-82216666D02*
X89783333Y-82250000D01*
X89816666Y-82283333D01*
X89850000Y-82250000D01*
X89816666Y-82216666D01*
X89816666Y-82283333D01*
X90050000Y-82450000D02*
X90316666Y-82450000D01*
X90150000Y-82216666D02*
X90150000Y-82816666D01*
X90183333Y-82883333D01*
X90250000Y-82916666D01*
X90316666Y-82916666D01*
X90816666Y-82883333D02*
X90750000Y-82916666D01*
X90616666Y-82916666D01*
X90550000Y-82883333D01*
X90516666Y-82816666D01*
X90516666Y-82550000D01*
X90550000Y-82483333D01*
X90616666Y-82450000D01*
X90750000Y-82450000D01*
X90816666Y-82483333D01*
X90850000Y-82550000D01*
X90850000Y-82616666D01*
X90516666Y-82683333D01*
X91116666Y-82883333D02*
X91183333Y-82916666D01*
X91316666Y-82916666D01*
X91383333Y-82883333D01*
X91416666Y-82816666D01*
X91416666Y-82783333D01*
X91383333Y-82716666D01*
X91316666Y-82683333D01*
X91216666Y-82683333D01*
X91150000Y-82650000D01*
X91116666Y-82583333D01*
X91116666Y-82550000D01*
X91150000Y-82483333D01*
X91216666Y-82450000D01*
X91316666Y-82450000D01*
X91383333Y-82483333D01*
X91616666Y-82450000D02*
X91883333Y-82450000D01*
X91716666Y-82216666D02*
X91716666Y-82816666D01*
X91750000Y-82883333D01*
X91816666Y-82916666D01*
X91883333Y-82916666D01*
X92483333Y-82916666D02*
X92083333Y-82916666D01*
X92283333Y-82916666D02*
X92283333Y-82216666D01*
X92216666Y-82316666D01*
X92150000Y-82383333D01*
X92083333Y-82416666D01*
X93316666Y-82916666D02*
X93316666Y-82450000D01*
X93316666Y-82583333D02*
X93350000Y-82516666D01*
X93383333Y-82483333D01*
X93450000Y-82450000D01*
X93516666Y-82450000D01*
X94016666Y-82883333D02*
X93950000Y-82916666D01*
X93816666Y-82916666D01*
X93750000Y-82883333D01*
X93716666Y-82816666D01*
X93716666Y-82550000D01*
X93750000Y-82483333D01*
X93816666Y-82450000D01*
X93950000Y-82450000D01*
X94016666Y-82483333D01*
X94050000Y-82550000D01*
X94050000Y-82616666D01*
X93716666Y-82683333D01*
X94283333Y-82450000D02*
X94450000Y-82916666D01*
X94616666Y-82450000D01*
X95716666Y-82916666D02*
X95716666Y-82550000D01*
X95683333Y-82483333D01*
X95616666Y-82450000D01*
X95483333Y-82450000D01*
X95416666Y-82483333D01*
X95716666Y-82883333D02*
X95650000Y-82916666D01*
X95483333Y-82916666D01*
X95416666Y-82883333D01*
X95383333Y-82816666D01*
X95383333Y-82750000D01*
X95416666Y-82683333D01*
X95483333Y-82650000D01*
X95650000Y-82650000D01*
X95716666Y-82616666D01*
%TO.C,U2*%
X88941666Y-76671666D02*
X88941666Y-77238333D01*
X88975000Y-77305000D01*
X89008333Y-77338333D01*
X89075000Y-77371666D01*
X89208333Y-77371666D01*
X89275000Y-77338333D01*
X89308333Y-77305000D01*
X89341666Y-77238333D01*
X89341666Y-76671666D01*
X89641666Y-76738333D02*
X89675000Y-76705000D01*
X89741666Y-76671666D01*
X89908333Y-76671666D01*
X89975000Y-76705000D01*
X90008333Y-76738333D01*
X90041666Y-76805000D01*
X90041666Y-76871666D01*
X90008333Y-76971666D01*
X89608333Y-77371666D01*
X90041666Y-77371666D01*
%TO.C,Q5*%
X98053333Y-84753333D02*
X97986666Y-84720000D01*
X97920000Y-84653333D01*
X97820000Y-84553333D01*
X97753333Y-84520000D01*
X97686666Y-84520000D01*
X97720000Y-84686666D02*
X97653333Y-84653333D01*
X97586666Y-84586666D01*
X97553333Y-84453333D01*
X97553333Y-84220000D01*
X97586666Y-84086666D01*
X97653333Y-84020000D01*
X97720000Y-83986666D01*
X97853333Y-83986666D01*
X97920000Y-84020000D01*
X97986666Y-84086666D01*
X98020000Y-84220000D01*
X98020000Y-84453333D01*
X97986666Y-84586666D01*
X97920000Y-84653333D01*
X97853333Y-84686666D01*
X97720000Y-84686666D01*
X98653333Y-83986666D02*
X98320000Y-83986666D01*
X98286666Y-84320000D01*
X98320000Y-84286666D01*
X98386666Y-84253333D01*
X98553333Y-84253333D01*
X98620000Y-84286666D01*
X98653333Y-84320000D01*
X98686666Y-84386666D01*
X98686666Y-84553333D01*
X98653333Y-84620000D01*
X98620000Y-84653333D01*
X98553333Y-84686666D01*
X98386666Y-84686666D01*
X98320000Y-84653333D01*
X98286666Y-84620000D01*
%TO.C,Q9*%
X93393333Y-79916666D02*
X93360000Y-79983333D01*
X93293333Y-80050000D01*
X93193333Y-80150000D01*
X93160000Y-80216666D01*
X93160000Y-80283333D01*
X93326666Y-80250000D02*
X93293333Y-80316666D01*
X93226666Y-80383333D01*
X93093333Y-80416666D01*
X92860000Y-80416666D01*
X92726666Y-80383333D01*
X92660000Y-80316666D01*
X92626666Y-80250000D01*
X92626666Y-80116666D01*
X92660000Y-80050000D01*
X92726666Y-79983333D01*
X92860000Y-79950000D01*
X93093333Y-79950000D01*
X93226666Y-79983333D01*
X93293333Y-80050000D01*
X93326666Y-80116666D01*
X93326666Y-80250000D01*
X93326666Y-79616666D02*
X93326666Y-79483333D01*
X93293333Y-79416666D01*
X93260000Y-79383333D01*
X93160000Y-79316666D01*
X93026666Y-79283333D01*
X92760000Y-79283333D01*
X92693333Y-79316666D01*
X92660000Y-79350000D01*
X92626666Y-79416666D01*
X92626666Y-79550000D01*
X92660000Y-79616666D01*
X92693333Y-79650000D01*
X92760000Y-79683333D01*
X92926666Y-79683333D01*
X92993333Y-79650000D01*
X93026666Y-79616666D01*
X93060000Y-79550000D01*
X93060000Y-79416666D01*
X93026666Y-79350000D01*
X92993333Y-79316666D01*
X92926666Y-79283333D01*
%TO.C,Q12*%
X85783333Y-74930000D02*
X85750000Y-74996666D01*
X85683333Y-75063333D01*
X85583333Y-75163333D01*
X85550000Y-75230000D01*
X85550000Y-75296666D01*
X85716666Y-75263333D02*
X85683333Y-75330000D01*
X85616666Y-75396666D01*
X85483333Y-75430000D01*
X85250000Y-75430000D01*
X85116666Y-75396666D01*
X85050000Y-75330000D01*
X85016666Y-75263333D01*
X85016666Y-75130000D01*
X85050000Y-75063333D01*
X85116666Y-74996666D01*
X85250000Y-74963333D01*
X85483333Y-74963333D01*
X85616666Y-74996666D01*
X85683333Y-75063333D01*
X85716666Y-75130000D01*
X85716666Y-75263333D01*
X85716666Y-74296666D02*
X85716666Y-74696666D01*
X85716666Y-74496666D02*
X85016666Y-74496666D01*
X85116666Y-74563333D01*
X85183333Y-74630000D01*
X85216666Y-74696666D01*
X85083333Y-74030000D02*
X85050000Y-73996666D01*
X85016666Y-73930000D01*
X85016666Y-73763333D01*
X85050000Y-73696666D01*
X85083333Y-73663333D01*
X85150000Y-73630000D01*
X85216666Y-73630000D01*
X85316666Y-73663333D01*
X85716666Y-74063333D01*
X85716666Y-73630000D01*
%TO.C,Q13*%
X79986666Y-80640000D02*
X80020000Y-80573333D01*
X80086666Y-80506666D01*
X80186666Y-80406666D01*
X80220000Y-80340000D01*
X80220000Y-80273333D01*
X80053333Y-80306666D02*
X80086666Y-80240000D01*
X80153333Y-80173333D01*
X80286666Y-80140000D01*
X80520000Y-80140000D01*
X80653333Y-80173333D01*
X80720000Y-80240000D01*
X80753333Y-80306666D01*
X80753333Y-80440000D01*
X80720000Y-80506666D01*
X80653333Y-80573333D01*
X80520000Y-80606666D01*
X80286666Y-80606666D01*
X80153333Y-80573333D01*
X80086666Y-80506666D01*
X80053333Y-80440000D01*
X80053333Y-80306666D01*
X80053333Y-81273333D02*
X80053333Y-80873333D01*
X80053333Y-81073333D02*
X80753333Y-81073333D01*
X80653333Y-81006666D01*
X80586666Y-80940000D01*
X80553333Y-80873333D01*
X80753333Y-81506666D02*
X80753333Y-81940000D01*
X80486666Y-81706666D01*
X80486666Y-81806666D01*
X80453333Y-81873333D01*
X80420000Y-81906666D01*
X80353333Y-81940000D01*
X80186666Y-81940000D01*
X80120000Y-81906666D01*
X80086666Y-81873333D01*
X80053333Y-81806666D01*
X80053333Y-81606666D01*
X80086666Y-81540000D01*
X80120000Y-81506666D01*
%TO.C,Q6*%
X81736666Y-89953333D02*
X81770000Y-89886666D01*
X81836666Y-89820000D01*
X81936666Y-89720000D01*
X81970000Y-89653333D01*
X81970000Y-89586666D01*
X81803333Y-89620000D02*
X81836666Y-89553333D01*
X81903333Y-89486666D01*
X82036666Y-89453333D01*
X82270000Y-89453333D01*
X82403333Y-89486666D01*
X82470000Y-89553333D01*
X82503333Y-89620000D01*
X82503333Y-89753333D01*
X82470000Y-89820000D01*
X82403333Y-89886666D01*
X82270000Y-89920000D01*
X82036666Y-89920000D01*
X81903333Y-89886666D01*
X81836666Y-89820000D01*
X81803333Y-89753333D01*
X81803333Y-89620000D01*
X82503333Y-90520000D02*
X82503333Y-90386666D01*
X82470000Y-90320000D01*
X82436666Y-90286666D01*
X82336666Y-90220000D01*
X82203333Y-90186666D01*
X81936666Y-90186666D01*
X81870000Y-90220000D01*
X81836666Y-90253333D01*
X81803333Y-90320000D01*
X81803333Y-90453333D01*
X81836666Y-90520000D01*
X81870000Y-90553333D01*
X81936666Y-90586666D01*
X82103333Y-90586666D01*
X82170000Y-90553333D01*
X82203333Y-90520000D01*
X82236666Y-90453333D01*
X82236666Y-90320000D01*
X82203333Y-90253333D01*
X82170000Y-90220000D01*
X82103333Y-90186666D01*
%TO.C,T1*%
X93561666Y-69366666D02*
X93961666Y-69366666D01*
X93761666Y-70066666D02*
X93761666Y-69366666D01*
X94561666Y-70066666D02*
X94161666Y-70066666D01*
X94361666Y-70066666D02*
X94361666Y-69366666D01*
X94295000Y-69466666D01*
X94228333Y-69533333D01*
X94161666Y-69566666D01*
%TO.C,U1*%
X82066666Y-64796666D02*
X82066666Y-65363333D01*
X82100000Y-65430000D01*
X82133333Y-65463333D01*
X82200000Y-65496666D01*
X82333333Y-65496666D01*
X82400000Y-65463333D01*
X82433333Y-65430000D01*
X82466666Y-65363333D01*
X82466666Y-64796666D01*
X83166666Y-65496666D02*
X82766666Y-65496666D01*
X82966666Y-65496666D02*
X82966666Y-64796666D01*
X82900000Y-64896666D01*
X82833333Y-64963333D01*
X82766666Y-64996666D01*
%TO.C,C1*%
X98176666Y-63010000D02*
X98210000Y-62976666D01*
X98310000Y-62943333D01*
X98376666Y-62943333D01*
X98476666Y-62976666D01*
X98543333Y-63043333D01*
X98576666Y-63110000D01*
X98610000Y-63243333D01*
X98610000Y-63343333D01*
X98576666Y-63476666D01*
X98543333Y-63543333D01*
X98476666Y-63610000D01*
X98376666Y-63643333D01*
X98310000Y-63643333D01*
X98210000Y-63610000D01*
X98176666Y-63576666D01*
X97510000Y-62943333D02*
X97910000Y-62943333D01*
X97710000Y-62943333D02*
X97710000Y-63643333D01*
X97776666Y-63543333D01*
X97843333Y-63476666D01*
X97910000Y-63443333D01*
%TO.C,Q4*%
X90383333Y-84066666D02*
X90350000Y-84133333D01*
X90283333Y-84200000D01*
X90183333Y-84300000D01*
X90150000Y-84366666D01*
X90150000Y-84433333D01*
X90316666Y-84400000D02*
X90283333Y-84466666D01*
X90216666Y-84533333D01*
X90083333Y-84566666D01*
X89850000Y-84566666D01*
X89716666Y-84533333D01*
X89650000Y-84466666D01*
X89616666Y-84400000D01*
X89616666Y-84266666D01*
X89650000Y-84200000D01*
X89716666Y-84133333D01*
X89850000Y-84100000D01*
X90083333Y-84100000D01*
X90216666Y-84133333D01*
X90283333Y-84200000D01*
X90316666Y-84266666D01*
X90316666Y-84400000D01*
X89850000Y-83500000D02*
X90316666Y-83500000D01*
X89583333Y-83666666D02*
X90083333Y-83833333D01*
X90083333Y-83400000D01*
%TO.C,R1*%
X81146666Y-67476666D02*
X80813333Y-67710000D01*
X81146666Y-67876666D02*
X80446666Y-67876666D01*
X80446666Y-67610000D01*
X80480000Y-67543333D01*
X80513333Y-67510000D01*
X80580000Y-67476666D01*
X80680000Y-67476666D01*
X80746666Y-67510000D01*
X80780000Y-67543333D01*
X80813333Y-67610000D01*
X80813333Y-67876666D01*
X81146666Y-66810000D02*
X81146666Y-67210000D01*
X81146666Y-67010000D02*
X80446666Y-67010000D01*
X80546666Y-67076666D01*
X80613333Y-67143333D01*
X80646666Y-67210000D01*
%TO.C,Q2*%
X86393333Y-80573333D02*
X86326666Y-80540000D01*
X86260000Y-80473333D01*
X86160000Y-80373333D01*
X86093333Y-80340000D01*
X86026666Y-80340000D01*
X86060000Y-80506666D02*
X85993333Y-80473333D01*
X85926666Y-80406666D01*
X85893333Y-80273333D01*
X85893333Y-80040000D01*
X85926666Y-79906666D01*
X85993333Y-79840000D01*
X86060000Y-79806666D01*
X86193333Y-79806666D01*
X86260000Y-79840000D01*
X86326666Y-79906666D01*
X86360000Y-80040000D01*
X86360000Y-80273333D01*
X86326666Y-80406666D01*
X86260000Y-80473333D01*
X86193333Y-80506666D01*
X86060000Y-80506666D01*
X86626666Y-79873333D02*
X86660000Y-79840000D01*
X86726666Y-79806666D01*
X86893333Y-79806666D01*
X86960000Y-79840000D01*
X86993333Y-79873333D01*
X87026666Y-79940000D01*
X87026666Y-80006666D01*
X86993333Y-80106666D01*
X86593333Y-80506666D01*
X87026666Y-80506666D01*
%TO.C,Q1*%
X91758333Y-66758333D02*
X91691666Y-66725000D01*
X91625000Y-66658333D01*
X91525000Y-66558333D01*
X91458333Y-66525000D01*
X91391666Y-66525000D01*
X91425000Y-66691666D02*
X91358333Y-66658333D01*
X91291666Y-66591666D01*
X91258333Y-66458333D01*
X91258333Y-66225000D01*
X91291666Y-66091666D01*
X91358333Y-66025000D01*
X91425000Y-65991666D01*
X91558333Y-65991666D01*
X91625000Y-66025000D01*
X91691666Y-66091666D01*
X91725000Y-66225000D01*
X91725000Y-66458333D01*
X91691666Y-66591666D01*
X91625000Y-66658333D01*
X91558333Y-66691666D01*
X91425000Y-66691666D01*
X92391666Y-66691666D02*
X91991666Y-66691666D01*
X92191666Y-66691666D02*
X92191666Y-65991666D01*
X92125000Y-66091666D01*
X92058333Y-66158333D01*
X91991666Y-66191666D01*
%TO.C,R3*%
X83373333Y-64541666D02*
X83140000Y-64208333D01*
X82973333Y-64541666D02*
X82973333Y-63841666D01*
X83240000Y-63841666D01*
X83306666Y-63875000D01*
X83340000Y-63908333D01*
X83373333Y-63975000D01*
X83373333Y-64075000D01*
X83340000Y-64141666D01*
X83306666Y-64175000D01*
X83240000Y-64208333D01*
X82973333Y-64208333D01*
X83606666Y-63841666D02*
X84040000Y-63841666D01*
X83806666Y-64108333D01*
X83906666Y-64108333D01*
X83973333Y-64141666D01*
X84006666Y-64175000D01*
X84040000Y-64241666D01*
X84040000Y-64408333D01*
X84006666Y-64475000D01*
X83973333Y-64508333D01*
X83906666Y-64541666D01*
X83706666Y-64541666D01*
X83640000Y-64508333D01*
X83606666Y-64475000D01*
%TO.C,R6*%
X91923333Y-73973333D02*
X92256666Y-73740000D01*
X91923333Y-73573333D02*
X92623333Y-73573333D01*
X92623333Y-73840000D01*
X92590000Y-73906666D01*
X92556666Y-73940000D01*
X92490000Y-73973333D01*
X92390000Y-73973333D01*
X92323333Y-73940000D01*
X92290000Y-73906666D01*
X92256666Y-73840000D01*
X92256666Y-73573333D01*
X92623333Y-74573333D02*
X92623333Y-74440000D01*
X92590000Y-74373333D01*
X92556666Y-74340000D01*
X92456666Y-74273333D01*
X92323333Y-74240000D01*
X92056666Y-74240000D01*
X91990000Y-74273333D01*
X91956666Y-74306666D01*
X91923333Y-74373333D01*
X91923333Y-74506666D01*
X91956666Y-74573333D01*
X91990000Y-74606666D01*
X92056666Y-74640000D01*
X92223333Y-74640000D01*
X92290000Y-74606666D01*
X92323333Y-74573333D01*
X92356666Y-74506666D01*
X92356666Y-74373333D01*
X92323333Y-74306666D01*
X92290000Y-74273333D01*
X92223333Y-74240000D01*
%TO.C,R2*%
X99083333Y-74466666D02*
X98850000Y-74133333D01*
X98683333Y-74466666D02*
X98683333Y-73766666D01*
X98950000Y-73766666D01*
X99016666Y-73800000D01*
X99050000Y-73833333D01*
X99083333Y-73900000D01*
X99083333Y-74000000D01*
X99050000Y-74066666D01*
X99016666Y-74100000D01*
X98950000Y-74133333D01*
X98683333Y-74133333D01*
X99350000Y-73833333D02*
X99383333Y-73800000D01*
X99450000Y-73766666D01*
X99616666Y-73766666D01*
X99683333Y-73800000D01*
X99716666Y-73833333D01*
X99750000Y-73900000D01*
X99750000Y-73966666D01*
X99716666Y-74066666D01*
X99316666Y-74466666D01*
X99750000Y-74466666D01*
%TO.C,Q10*%
X89453333Y-92130000D02*
X89420000Y-92196666D01*
X89353333Y-92263333D01*
X89253333Y-92363333D01*
X89220000Y-92430000D01*
X89220000Y-92496666D01*
X89386666Y-92463333D02*
X89353333Y-92530000D01*
X89286666Y-92596666D01*
X89153333Y-92630000D01*
X88920000Y-92630000D01*
X88786666Y-92596666D01*
X88720000Y-92530000D01*
X88686666Y-92463333D01*
X88686666Y-92330000D01*
X88720000Y-92263333D01*
X88786666Y-92196666D01*
X88920000Y-92163333D01*
X89153333Y-92163333D01*
X89286666Y-92196666D01*
X89353333Y-92263333D01*
X89386666Y-92330000D01*
X89386666Y-92463333D01*
X89386666Y-91496666D02*
X89386666Y-91896666D01*
X89386666Y-91696666D02*
X88686666Y-91696666D01*
X88786666Y-91763333D01*
X88853333Y-91830000D01*
X88886666Y-91896666D01*
X88686666Y-91063333D02*
X88686666Y-90996666D01*
X88720000Y-90930000D01*
X88753333Y-90896666D01*
X88820000Y-90863333D01*
X88953333Y-90830000D01*
X89120000Y-90830000D01*
X89253333Y-90863333D01*
X89320000Y-90896666D01*
X89353333Y-90930000D01*
X89386666Y-90996666D01*
X89386666Y-91063333D01*
X89353333Y-91130000D01*
X89320000Y-91163333D01*
X89253333Y-91196666D01*
X89120000Y-91230000D01*
X88953333Y-91230000D01*
X88820000Y-91196666D01*
X88753333Y-91163333D01*
X88720000Y-91130000D01*
X88686666Y-91063333D01*
%TO.C,Q11*%
X99210437Y-90738076D02*
X99148236Y-90779145D01*
X99057168Y-90803546D01*
X98920565Y-90840149D01*
X98858364Y-90881217D01*
X98825031Y-90938952D01*
X98986035Y-90993418D02*
X98923834Y-91034486D01*
X98832766Y-91058888D01*
X98700629Y-91021089D01*
X98498557Y-90904422D01*
X98399753Y-90808888D01*
X98375352Y-90717820D01*
X98379817Y-90643418D01*
X98446484Y-90527948D01*
X98508685Y-90486880D01*
X98599753Y-90462478D01*
X98731890Y-90500277D01*
X98933963Y-90616944D01*
X99032766Y-90712478D01*
X99057168Y-90803546D01*
X99052702Y-90877948D01*
X98986035Y-90993418D01*
X99469369Y-90156260D02*
X99269369Y-90502670D01*
X99369369Y-90329465D02*
X98763151Y-89979465D01*
X98816420Y-90087200D01*
X98840822Y-90178269D01*
X98836356Y-90252670D01*
X99802702Y-89578910D02*
X99602702Y-89925320D01*
X99702702Y-89752115D02*
X99096484Y-89402115D01*
X99149753Y-89509850D01*
X99174155Y-89600918D01*
X99169689Y-89675320D01*
%TO.C,J1*%
X82256666Y-56598333D02*
X82756666Y-56598333D01*
X82856666Y-56631666D01*
X82923333Y-56698333D01*
X82956666Y-56798333D01*
X82956666Y-56865000D01*
X82956666Y-55898333D02*
X82956666Y-56298333D01*
X82956666Y-56098333D02*
X82256666Y-56098333D01*
X82356666Y-56165000D01*
X82423333Y-56231666D01*
X82456666Y-56298333D01*
%TO.C,R5*%
X80508333Y-90316666D02*
X80275000Y-89983333D01*
X80108333Y-90316666D02*
X80108333Y-89616666D01*
X80375000Y-89616666D01*
X80441666Y-89650000D01*
X80475000Y-89683333D01*
X80508333Y-89750000D01*
X80508333Y-89850000D01*
X80475000Y-89916666D01*
X80441666Y-89950000D01*
X80375000Y-89983333D01*
X80108333Y-89983333D01*
X81141666Y-89616666D02*
X80808333Y-89616666D01*
X80775000Y-89950000D01*
X80808333Y-89916666D01*
X80875000Y-89883333D01*
X81041666Y-89883333D01*
X81108333Y-89916666D01*
X81141666Y-89950000D01*
X81175000Y-90016666D01*
X81175000Y-90183333D01*
X81141666Y-90250000D01*
X81108333Y-90283333D01*
X81041666Y-90316666D01*
X80875000Y-90316666D01*
X80808333Y-90283333D01*
X80775000Y-90250000D01*
%TO.C,C2*%
X88040000Y-64853333D02*
X88006666Y-64820000D01*
X87973333Y-64720000D01*
X87973333Y-64653333D01*
X88006666Y-64553333D01*
X88073333Y-64486666D01*
X88140000Y-64453333D01*
X88273333Y-64420000D01*
X88373333Y-64420000D01*
X88506666Y-64453333D01*
X88573333Y-64486666D01*
X88640000Y-64553333D01*
X88673333Y-64653333D01*
X88673333Y-64720000D01*
X88640000Y-64820000D01*
X88606666Y-64853333D01*
X88606666Y-65120000D02*
X88640000Y-65153333D01*
X88673333Y-65220000D01*
X88673333Y-65386666D01*
X88640000Y-65453333D01*
X88606666Y-65486666D01*
X88540000Y-65520000D01*
X88473333Y-65520000D01*
X88373333Y-65486666D01*
X87973333Y-65086666D01*
X87973333Y-65520000D01*
%TO.C,Q8*%
X98183333Y-76133333D02*
X98116666Y-76100000D01*
X98050000Y-76033333D01*
X97950000Y-75933333D01*
X97883333Y-75900000D01*
X97816666Y-75900000D01*
X97850000Y-76066666D02*
X97783333Y-76033333D01*
X97716666Y-75966666D01*
X97683333Y-75833333D01*
X97683333Y-75600000D01*
X97716666Y-75466666D01*
X97783333Y-75400000D01*
X97850000Y-75366666D01*
X97983333Y-75366666D01*
X98050000Y-75400000D01*
X98116666Y-75466666D01*
X98150000Y-75600000D01*
X98150000Y-75833333D01*
X98116666Y-75966666D01*
X98050000Y-76033333D01*
X97983333Y-76066666D01*
X97850000Y-76066666D01*
X98550000Y-75666666D02*
X98483333Y-75633333D01*
X98450000Y-75600000D01*
X98416666Y-75533333D01*
X98416666Y-75500000D01*
X98450000Y-75433333D01*
X98483333Y-75400000D01*
X98550000Y-75366666D01*
X98683333Y-75366666D01*
X98750000Y-75400000D01*
X98783333Y-75433333D01*
X98816666Y-75500000D01*
X98816666Y-75533333D01*
X98783333Y-75600000D01*
X98750000Y-75633333D01*
X98683333Y-75666666D01*
X98550000Y-75666666D01*
X98483333Y-75700000D01*
X98450000Y-75733333D01*
X98416666Y-75800000D01*
X98416666Y-75933333D01*
X98450000Y-76000000D01*
X98483333Y-76033333D01*
X98550000Y-76066666D01*
X98683333Y-76066666D01*
X98750000Y-76033333D01*
X98783333Y-76000000D01*
X98816666Y-75933333D01*
X98816666Y-75800000D01*
X98783333Y-75733333D01*
X98750000Y-75700000D01*
X98683333Y-75666666D01*
%TO.C,Q7*%
X84298643Y-90749401D02*
X84236442Y-90790470D01*
X84145373Y-90814871D01*
X84008771Y-90851474D01*
X83946570Y-90892542D01*
X83913237Y-90950277D01*
X84074241Y-91004743D02*
X84012040Y-91045811D01*
X83920972Y-91070213D01*
X83788835Y-91032414D01*
X83586762Y-90915747D01*
X83487959Y-90820213D01*
X83463557Y-90729145D01*
X83468023Y-90654743D01*
X83534690Y-90539273D01*
X83596891Y-90498205D01*
X83687959Y-90473803D01*
X83820096Y-90511602D01*
X84022168Y-90628269D01*
X84120972Y-90723803D01*
X84145373Y-90814871D01*
X84140908Y-90889273D01*
X84074241Y-91004743D01*
X83734690Y-90192863D02*
X83968023Y-89788718D01*
X84424241Y-90398525D01*
%TO.C,Q3*%
X88638245Y-87439284D02*
X88597176Y-87377083D01*
X88572775Y-87286014D01*
X88536172Y-87149412D01*
X88495104Y-87087211D01*
X88437369Y-87053878D01*
X88382903Y-87214882D02*
X88341835Y-87152681D01*
X88317433Y-87061613D01*
X88355232Y-86929476D01*
X88471899Y-86727403D01*
X88567433Y-86628600D01*
X88658501Y-86604198D01*
X88732903Y-86608664D01*
X88848373Y-86675331D01*
X88889441Y-86737532D01*
X88913843Y-86828600D01*
X88876044Y-86960737D01*
X88759377Y-87162809D01*
X88663843Y-87261613D01*
X88572775Y-87286014D01*
X88498373Y-87281549D01*
X88382903Y-87214882D01*
X89194783Y-86875331D02*
X89570061Y-87091997D01*
X89234655Y-87206271D01*
X89321258Y-87256271D01*
X89362326Y-87318472D01*
X89374527Y-87364006D01*
X89370061Y-87438408D01*
X89286728Y-87582745D01*
X89224527Y-87623814D01*
X89178993Y-87636014D01*
X89104591Y-87631549D01*
X88931386Y-87531549D01*
X88890317Y-87469348D01*
X88878117Y-87423814D01*
%TO.C,R4*%
X95306666Y-70366666D02*
X94973333Y-70600000D01*
X95306666Y-70766666D02*
X94606666Y-70766666D01*
X94606666Y-70500000D01*
X94640000Y-70433333D01*
X94673333Y-70400000D01*
X94740000Y-70366666D01*
X94840000Y-70366666D01*
X94906666Y-70400000D01*
X94940000Y-70433333D01*
X94973333Y-70500000D01*
X94973333Y-70766666D01*
X94840000Y-69766666D02*
X95306666Y-69766666D01*
X94573333Y-69933333D02*
X95073333Y-70100000D01*
X95073333Y-69666666D01*
%TO.C,D1*%
X100766666Y-67996666D02*
X100066666Y-67996666D01*
X100066666Y-67830000D01*
X100100000Y-67730000D01*
X100166666Y-67663333D01*
X100233333Y-67630000D01*
X100366666Y-67596666D01*
X100466666Y-67596666D01*
X100600000Y-67630000D01*
X100666666Y-67663333D01*
X100733333Y-67730000D01*
X100766666Y-67830000D01*
X100766666Y-67996666D01*
X100766666Y-66930000D02*
X100766666Y-67330000D01*
X100766666Y-67130000D02*
X100066666Y-67130000D01*
X100166666Y-67196666D01*
X100233333Y-67263333D01*
X100266666Y-67330000D01*
%TO.C,C3*%
X83433333Y-71210000D02*
X83400000Y-71243333D01*
X83300000Y-71276666D01*
X83233333Y-71276666D01*
X83133333Y-71243333D01*
X83066666Y-71176666D01*
X83033333Y-71110000D01*
X83000000Y-70976666D01*
X83000000Y-70876666D01*
X83033333Y-70743333D01*
X83066666Y-70676666D01*
X83133333Y-70610000D01*
X83233333Y-70576666D01*
X83300000Y-70576666D01*
X83400000Y-70610000D01*
X83433333Y-70643333D01*
X83666666Y-70576666D02*
X84100000Y-70576666D01*
X83866666Y-70843333D01*
X83966666Y-70843333D01*
X84033333Y-70876666D01*
X84066666Y-70910000D01*
X84100000Y-70976666D01*
X84100000Y-71143333D01*
X84066666Y-71210000D01*
X84033333Y-71243333D01*
X83966666Y-71276666D01*
X83766666Y-71276666D01*
X83700000Y-71243333D01*
X83666666Y-71210000D01*
%TO.C,Q5*%
X98120000Y-80410000D02*
X98770000Y-80410000D01*
X98120000Y-80410000D02*
X97470000Y-80410000D01*
X98120000Y-83530000D02*
X99795000Y-83530000D01*
X98120000Y-83530000D02*
X97470000Y-83530000D01*
%TO.C,Q9*%
X91950000Y-76990000D02*
X91950000Y-78665000D01*
X91950000Y-76990000D02*
X91950000Y-76340000D01*
X95070000Y-76990000D02*
X95070000Y-76340000D01*
X95070000Y-76990000D02*
X95070000Y-77640000D01*
%TO.C,Q12*%
X86220000Y-74030000D02*
X86220000Y-75705000D01*
X86220000Y-74030000D02*
X86220000Y-73380000D01*
X89340000Y-74030000D02*
X89340000Y-74680000D01*
X89340000Y-74030000D02*
X89340000Y-73380000D01*
%TO.C,Q13*%
X79410000Y-77590000D02*
X79410000Y-79265000D01*
X79410000Y-77590000D02*
X79410000Y-76940000D01*
X82530000Y-77590000D02*
X82530000Y-76940000D01*
X82530000Y-77590000D02*
X82530000Y-78240000D01*
%TO.C,Q6*%
X84740000Y-87370000D02*
X84740000Y-88020000D01*
X81620000Y-87370000D02*
X81620000Y-86720000D01*
X81620000Y-87370000D02*
X81620000Y-89045000D01*
X84740000Y-87370000D02*
X84740000Y-86720000D01*
%TO.C,T1*%
X95305000Y-65690000D02*
X95305000Y-68890000D01*
X92605000Y-65690000D02*
X92605000Y-68890000D01*
X92555000Y-67290000D02*
G75*
G03*
X92555000Y-67290000I-100000J0D01*
G01*
%TO.C,U1*%
X83749999Y-68750000D02*
X83749999Y-68300000D01*
X86519999Y-65530000D02*
X86969999Y-65530000D01*
X84199999Y-68750000D02*
X83749999Y-68750000D01*
X84199999Y-65530000D02*
X83749999Y-65530000D01*
X86519999Y-68750000D02*
X86969999Y-68750000D01*
X86969999Y-65530000D02*
X86969999Y-65980000D01*
X86969999Y-68750000D02*
X86969999Y-68300000D01*
%TO.C,C1*%
X98461252Y-64340000D02*
X97038748Y-64340000D01*
X98461252Y-66160000D02*
X97038748Y-66160000D01*
%TO.C,Q4*%
X92500000Y-86350000D02*
X91850000Y-86350000D01*
X92500000Y-83230000D02*
X93150000Y-83230000D01*
X92500000Y-86350000D02*
X93150000Y-86350000D01*
X92500000Y-83230000D02*
X90825000Y-83230000D01*
%TO.C,R1*%
X81620000Y-67513641D02*
X81620000Y-67206359D01*
X82380000Y-67513641D02*
X82380000Y-67206359D01*
%TO.C,Q2*%
X85910000Y-79350000D02*
X85260000Y-79350000D01*
X85910000Y-76230000D02*
X86560000Y-76230000D01*
X85910000Y-79350000D02*
X87585000Y-79350000D01*
X85910000Y-76230000D02*
X85260000Y-76230000D01*
%TO.C,Q1*%
X90400000Y-65990000D02*
X91050000Y-65990000D01*
X90400000Y-69110000D02*
X89750000Y-69110000D01*
X90400000Y-65990000D02*
X88725000Y-65990000D01*
X90400000Y-69110000D02*
X91050000Y-69110000D01*
%TO.C,R3*%
X85136359Y-64680000D02*
X85443641Y-64680000D01*
X85136359Y-63920000D02*
X85443641Y-63920000D01*
%TO.C,R6*%
X91325000Y-73862936D02*
X91325000Y-74317064D01*
X89855000Y-73862936D02*
X89855000Y-74317064D01*
%TO.C,R2*%
X96992936Y-73090000D02*
X98447064Y-73090000D01*
X96992936Y-71270000D02*
X98447064Y-71270000D01*
%TO.C,Q10*%
X93030000Y-91730000D02*
X93030000Y-92380000D01*
X89910000Y-91730000D02*
X89910000Y-93405000D01*
X93030000Y-91730000D02*
X93030000Y-91080000D01*
X89910000Y-91730000D02*
X89910000Y-91080000D01*
%TO.C,Q11*%
X98351000Y-89780000D02*
X99188500Y-88329407D01*
X98351000Y-89780000D02*
X98026000Y-90342917D01*
X95649000Y-88220000D02*
X95324000Y-88782917D01*
X95649000Y-88220000D02*
X95974000Y-87657083D01*
%TO.C,J1*%
X87070000Y-49380000D02*
X87830000Y-49380000D01*
X85290000Y-60910000D02*
X85290000Y-60522929D01*
X84530000Y-55380000D02*
X84530000Y-49380000D01*
X87070000Y-58437071D02*
X87070000Y-58040000D01*
X84830000Y-55380000D02*
X84830000Y-49380000D01*
X89610000Y-55380000D02*
X89610000Y-49380000D01*
X87070000Y-55380000D02*
X87070000Y-49380000D01*
X94690000Y-49380000D02*
X95450000Y-49380000D01*
X92150000Y-49380000D02*
X92910000Y-49380000D01*
X87830000Y-60977071D02*
X87830000Y-60522929D01*
X92910000Y-49380000D02*
X92910000Y-55380000D01*
X84590000Y-55380000D02*
X84590000Y-49380000D01*
X83580000Y-58040000D02*
X96400000Y-58040000D01*
X96400000Y-58040000D02*
X96400000Y-55380000D01*
X83580000Y-55380000D02*
X83580000Y-58040000D01*
X92910000Y-58437071D02*
X92910000Y-58040000D01*
X85290000Y-58437071D02*
X85290000Y-58040000D01*
X90370000Y-49380000D02*
X90370000Y-55380000D01*
X84530000Y-49380000D02*
X85290000Y-49380000D01*
X94690000Y-58437071D02*
X94690000Y-58040000D01*
X90370000Y-60977071D02*
X90370000Y-60522929D01*
X83640000Y-63290000D02*
X83640000Y-62020000D01*
X92150000Y-60977071D02*
X92150000Y-60522929D01*
X87830000Y-49380000D02*
X87830000Y-55380000D01*
X94690000Y-55380000D02*
X94690000Y-49380000D01*
X94690000Y-60977071D02*
X94690000Y-60522929D01*
X91260000Y-58040000D02*
X91260000Y-55380000D01*
X90370000Y-58437071D02*
X90370000Y-58040000D01*
X89610000Y-60977071D02*
X89610000Y-60522929D01*
X93800000Y-58040000D02*
X93800000Y-55380000D01*
X87830000Y-58437071D02*
X87830000Y-58040000D01*
X84950000Y-55380000D02*
X84950000Y-49380000D01*
X84710000Y-55380000D02*
X84710000Y-49380000D01*
X85190000Y-55380000D02*
X85190000Y-49380000D01*
X92150000Y-58437071D02*
X92150000Y-58040000D01*
X86180000Y-58040000D02*
X86180000Y-55380000D01*
X85070000Y-55380000D02*
X85070000Y-49380000D01*
X89610000Y-49380000D02*
X90370000Y-49380000D01*
X87070000Y-60977071D02*
X87070000Y-60522929D01*
X88720000Y-58040000D02*
X88720000Y-55380000D01*
X95450000Y-58437071D02*
X95450000Y-58040000D01*
X89610000Y-58437071D02*
X89610000Y-58040000D01*
X95450000Y-49380000D02*
X95450000Y-55380000D01*
X85290000Y-49380000D02*
X85290000Y-55380000D01*
X84530000Y-60910000D02*
X84530000Y-60522929D01*
X96400000Y-55380000D02*
X83580000Y-55380000D01*
X84910000Y-63290000D02*
X83640000Y-63290000D01*
X92910000Y-60977071D02*
X92910000Y-60522929D01*
X95450000Y-60977071D02*
X95450000Y-60522929D01*
X84530000Y-58437071D02*
X84530000Y-58040000D01*
X92150000Y-55380000D02*
X92150000Y-49380000D01*
%TO.C,R5*%
X81807064Y-92465000D02*
X81352936Y-92465000D01*
X81807064Y-90995000D02*
X81352936Y-90995000D01*
%TO.C,C2*%
X90480580Y-64400000D02*
X90199420Y-64400000D01*
X90480580Y-65420000D02*
X90199420Y-65420000D01*
%TO.C,Q8*%
X98000000Y-79560000D02*
X97350000Y-79560000D01*
X98000000Y-76440000D02*
X98650000Y-76440000D01*
X98000000Y-79560000D02*
X99675000Y-79560000D01*
X98000000Y-76440000D02*
X97350000Y-76440000D01*
%TO.C,Q7*%
X84999000Y-90170000D02*
X84161500Y-91620593D01*
X84999000Y-90170000D02*
X85324000Y-89607083D01*
X87701000Y-91730000D02*
X88026000Y-91167083D01*
X87701000Y-91730000D02*
X87376000Y-92292917D01*
%TO.C,Q3*%
X88190000Y-83089000D02*
X88752917Y-83414000D01*
X88190000Y-83089000D02*
X87627083Y-82764000D01*
X86630000Y-85791000D02*
X88080593Y-86628500D01*
X86630000Y-85791000D02*
X86067083Y-85466000D01*
%TO.C,R4*%
X98447064Y-70820000D02*
X96992936Y-70820000D01*
X98447064Y-69000000D02*
X96992936Y-69000000D01*
%TO.C,D1*%
X99980000Y-66600000D02*
X96130000Y-66600000D01*
X99980000Y-68600000D02*
X96130000Y-68600000D01*
X99980000Y-68600000D02*
X99980000Y-66600000D01*
%TO.C,C3*%
X83657836Y-70160000D02*
X83442164Y-70160000D01*
X83657836Y-69440000D02*
X83442164Y-69440000D01*
%TD*%
M02*
