%TF.GenerationSoftware,KiCad,Pcbnew,(6.0.0)*%
%TF.CreationDate,2023-04-30T17:40:05-04:00*%
%TF.ProjectId,nixitest1,6e697869-7465-4737-9431-2e6b69636164,rev?*%
%TF.SameCoordinates,Original*%
%TF.FileFunction,Soldermask,Top*%
%TF.FilePolarity,Negative*%
%FSLAX46Y46*%
G04 Gerber Fmt 4.6, Leading zero omitted, Abs format (unit mm)*
G04 Created by KiCad (PCBNEW (6.0.0)) date 2023-04-30 17:40:05*
%MOMM*%
%LPD*%
G01*
G04 APERTURE LIST*
G04 Aperture macros list*
%AMRoundRect*
0 Rectangle with rounded corners*
0 $1 Rounding radius*
0 $2 $3 $4 $5 $6 $7 $8 $9 X,Y pos of 4 corners*
0 Add a 4 corners polygon primitive as box body*
4,1,4,$2,$3,$4,$5,$6,$7,$8,$9,$2,$3,0*
0 Add four circle primitives for the rounded corners*
1,1,$1+$1,$2,$3*
1,1,$1+$1,$4,$5*
1,1,$1+$1,$6,$7*
1,1,$1+$1,$8,$9*
0 Add four rect primitives between the rounded corners*
20,1,$1+$1,$2,$3,$4,$5,0*
20,1,$1+$1,$4,$5,$6,$7,0*
20,1,$1+$1,$6,$7,$8,$9,0*
20,1,$1+$1,$8,$9,$2,$3,0*%
G04 Aperture macros list end*
%ADD10C,0.150000*%
%ADD11C,4.000000*%
%ADD12C,2.280000*%
%ADD13R,1.750000X2.250000*%
%ADD14RoundRect,0.150000X0.587500X0.150000X-0.587500X0.150000X-0.587500X-0.150000X0.587500X-0.150000X0*%
%ADD15RoundRect,0.150000X0.150000X-0.587500X0.150000X0.587500X-0.150000X0.587500X-0.150000X-0.587500X0*%
%ADD16RoundRect,0.055000X-0.220000X0.445000X-0.220000X-0.445000X0.220000X-0.445000X0.220000X0.445000X0*%
%ADD17RoundRect,0.050000X-0.375000X-0.050000X0.375000X-0.050000X0.375000X0.050000X-0.375000X0.050000X0*%
%ADD18RoundRect,0.050000X-0.050000X-0.375000X0.050000X-0.375000X0.050000X0.375000X-0.050000X0.375000X0*%
%ADD19R,1.650000X1.650000*%
%ADD20RoundRect,0.250000X0.325000X0.650000X-0.325000X0.650000X-0.325000X-0.650000X0.325000X-0.650000X0*%
%ADD21RoundRect,0.150000X-0.587500X-0.150000X0.587500X-0.150000X0.587500X0.150000X-0.587500X0.150000X0*%
%ADD22RoundRect,0.135000X0.185000X-0.135000X0.185000X0.135000X-0.185000X0.135000X-0.185000X-0.135000X0*%
%ADD23RoundRect,0.135000X-0.135000X-0.185000X0.135000X-0.185000X0.135000X0.185000X-0.135000X0.185000X0*%
%ADD24RoundRect,0.250000X-0.450000X0.262500X-0.450000X-0.262500X0.450000X-0.262500X0.450000X0.262500X0*%
%ADD25RoundRect,0.250000X-0.312500X-0.625000X0.312500X-0.625000X0.312500X0.625000X-0.312500X0.625000X0*%
%ADD26RoundRect,0.160000X0.640000X-0.640000X0.640000X0.640000X-0.640000X0.640000X-0.640000X-0.640000X0*%
%ADD27C,1.600000*%
%ADD28RoundRect,0.150000X0.163846X0.583790X-0.423654X-0.433790X-0.163846X-0.583790X0.423654X0.433790X0*%
%ADD29R,1.700000X1.700000*%
%ADD30O,1.700000X1.700000*%
%ADD31RoundRect,0.250000X0.262500X0.450000X-0.262500X0.450000X-0.262500X-0.450000X0.262500X-0.450000X0*%
%ADD32RoundRect,0.225000X0.225000X0.250000X-0.225000X0.250000X-0.225000X-0.250000X0.225000X-0.250000X0*%
%ADD33RoundRect,0.150000X-0.163846X-0.583790X0.423654X0.433790X0.163846X0.583790X-0.423654X-0.433790X0*%
%ADD34RoundRect,0.150000X0.583790X-0.163846X-0.433790X0.423654X-0.583790X0.163846X0.433790X-0.423654X0*%
%ADD35RoundRect,0.250000X0.312500X0.625000X-0.312500X0.625000X-0.312500X-0.625000X0.312500X-0.625000X0*%
%ADD36R,1.100000X1.100000*%
%ADD37RoundRect,0.140000X0.140000X0.170000X-0.140000X0.170000X-0.140000X-0.170000X0.140000X-0.170000X0*%
G04 APERTURE END LIST*
D10*
X82470000Y-59860000D02*
X81970000Y-59360000D01*
X81470000Y-59860000D02*
X82470000Y-59860000D01*
X81970000Y-60360000D02*
X81470000Y-60860000D01*
X80970000Y-60360000D02*
X81470000Y-59860000D01*
X81970000Y-59360000D02*
X81970000Y-60360000D01*
X81470000Y-60860000D02*
X80970000Y-60860000D01*
X80970000Y-60860000D02*
X80970000Y-60360000D01*
D11*
%TO.C,U2*%
X89850000Y-80020000D03*
D12*
X86000000Y-72000000D03*
X84250000Y-75500000D03*
X84250000Y-80000000D03*
X84250000Y-80000000D03*
X84250000Y-84500000D03*
X86000000Y-88000000D03*
X90000000Y-89000000D03*
X94000000Y-88000000D03*
X95750000Y-84500000D03*
X95750000Y-80000000D03*
X95750000Y-75500000D03*
X94000000Y-72000000D03*
X90000000Y-71000000D03*
%TD*%
D13*
%TO.C,J6*%
X98000000Y-95125000D03*
%TD*%
D14*
%TO.C,Q5*%
X99057500Y-82920000D03*
X99057500Y-81020000D03*
X97182500Y-81970000D03*
%TD*%
D15*
%TO.C,Q9*%
X92560000Y-77927500D03*
X94460000Y-77927500D03*
X93510000Y-76052500D03*
%TD*%
%TO.C,Q12*%
X86830000Y-74967500D03*
X88730000Y-74967500D03*
X87780000Y-73092500D03*
%TD*%
%TO.C,Q13*%
X80020000Y-78527500D03*
X81920000Y-78527500D03*
X80970000Y-76652500D03*
%TD*%
%TO.C,Q6*%
X82230000Y-88307500D03*
X84130000Y-88307500D03*
X83180000Y-86432500D03*
%TD*%
D16*
%TO.C,T1*%
X93070000Y-65790000D03*
X94840000Y-65790000D03*
X94840000Y-68790000D03*
X93070000Y-68790000D03*
%TD*%
D17*
%TO.C,U1*%
X83909999Y-66340000D03*
X83909999Y-66740000D03*
X83909999Y-67140000D03*
X83909999Y-67540000D03*
X83909999Y-67940000D03*
D18*
X84559999Y-68590000D03*
X84959999Y-68590000D03*
X85359999Y-68590000D03*
X85759999Y-68590000D03*
X86159999Y-68590000D03*
D17*
X86809999Y-67940000D03*
X86809999Y-67540000D03*
X86809999Y-67140000D03*
X86809999Y-66740000D03*
X86809999Y-66340000D03*
D18*
X86159999Y-65690000D03*
X85759999Y-65690000D03*
X85359999Y-65690000D03*
X84959999Y-65690000D03*
X84559999Y-65690000D03*
D19*
X85359999Y-67140000D03*
%TD*%
D20*
%TO.C,C1*%
X99225000Y-65250000D03*
X96275000Y-65250000D03*
%TD*%
D21*
%TO.C,Q4*%
X91562500Y-83840000D03*
X91562500Y-85740000D03*
X93437500Y-84790000D03*
%TD*%
D22*
%TO.C,R1*%
X82000000Y-67870000D03*
X82000000Y-66850000D03*
%TD*%
D14*
%TO.C,Q2*%
X86847500Y-78740000D03*
X86847500Y-76840000D03*
X84972500Y-77790000D03*
%TD*%
D21*
%TO.C,Q1*%
X89462500Y-66600000D03*
X89462500Y-68500000D03*
X91337500Y-67550000D03*
%TD*%
D23*
%TO.C,R3*%
X84780000Y-64300000D03*
X85800000Y-64300000D03*
%TD*%
D13*
%TO.C,J5*%
X94000000Y-95125000D03*
%TD*%
D24*
%TO.C,R6*%
X90590000Y-73177500D03*
X90590000Y-75002500D03*
%TD*%
D13*
%TO.C,J3*%
X90000000Y-95125000D03*
%TD*%
D25*
%TO.C,R2*%
X96257500Y-72180000D03*
X99182500Y-72180000D03*
%TD*%
D26*
%TO.C,NE1*%
X80390000Y-87370000D03*
D27*
X80390000Y-85120000D03*
%TD*%
D15*
%TO.C,Q10*%
X90520000Y-92667500D03*
X92420000Y-92667500D03*
X91470000Y-90792500D03*
%TD*%
D28*
%TO.C,Q11*%
X98291474Y-88663101D03*
X96646026Y-87713101D03*
X96531250Y-89811899D03*
%TD*%
D26*
%TO.C,NE2*%
X80430000Y-74735000D03*
D27*
X80430000Y-72485000D03*
%TD*%
D13*
%TO.C,J4*%
X86000000Y-95125000D03*
%TD*%
%TO.C,J2*%
X82000000Y-95125000D03*
%TD*%
D29*
%TO.C,J1*%
X84910000Y-62020000D03*
D30*
X84910000Y-59480000D03*
X87450000Y-62020000D03*
X87450000Y-59480000D03*
X89990000Y-62020000D03*
X89990000Y-59480000D03*
X92530000Y-62020000D03*
X92530000Y-59480000D03*
X95070000Y-62020000D03*
X95070000Y-59480000D03*
%TD*%
D31*
%TO.C,R5*%
X82492500Y-91730000D03*
X80667500Y-91730000D03*
%TD*%
D32*
%TO.C,C2*%
X91115000Y-64910000D03*
X89565000Y-64910000D03*
%TD*%
D14*
%TO.C,Q8*%
X98937500Y-78950000D03*
X98937500Y-77050000D03*
X97062500Y-78000000D03*
%TD*%
D33*
%TO.C,Q7*%
X85058526Y-91286899D03*
X86703974Y-92236899D03*
X86818750Y-90138101D03*
%TD*%
D34*
%TO.C,Q3*%
X87746899Y-85731474D03*
X88696899Y-84086026D03*
X86598101Y-83971250D03*
%TD*%
D35*
%TO.C,R4*%
X99182500Y-69910000D03*
X96257500Y-69910000D03*
%TD*%
D36*
%TO.C,D1*%
X99180000Y-67600000D03*
X96380000Y-67600000D03*
%TD*%
D37*
%TO.C,C3*%
X84030000Y-69800000D03*
X83070000Y-69800000D03*
%TD*%
M02*
